<?xml version="1.0" encoding="UTF-8" standalone="no"?>

<svg
   version="1.1"
   width="52.235px"
   height="52.235px"
   viewBox="0 0 52.235 52.235"
   xmlns="http://www.w3.org/2000/svg"
   xmlns:svg="http://www.w3.org/2000/svg">
<path
   d="M 44.611,7.675 C 34.425,-2.537 17.891,-2.562 7.677,7.622 -2.537,17.807 -2.561,34.345 7.621,44.559 17.807,54.774 34.349,54.795 44.558,44.61 54.772,34.426 54.798,17.892 44.611,7.675 Z"
   style="fill:CurrentColor" />

<path
   d="m 32.818385,10.815302 h -0.934768 v 4.673843 a 1.869537,1.869537 0 0 0 1.869537,1.869537 h 4.673842 v -0.934769 z m -16.825832,0 a 1.869537,1.869537 0 0 0 -1.869537,1.869537 v 26.173518 a 1.869537,1.869537 0 0 0 1.869537,1.869537 h 20.564906 a 1.869537,1.869537 0 0 0 1.869537,-1.869537 V 18.29345 h -4.673842 c -1.537694,0 -2.804306,-1.266611 -2.804306,-2.804305 v -4.673843 z m 0,10.280584 0.498231,0.0037 2.758502,3.379188 v -3.381057 h 0.996463 v 5.608611 h -0.42158 l -2.833284,-3.474535 v 3.474535 h -0.998332 z m 5.4497,0.0019 h 3.727857 v 0.881486 h -2.692134 v 1.31335 h 1.929363 v 0.8469 h -1.930297 v 1.679779 h 2.648199 v 0.887096 h -3.684858 c 0,-1.870472 0,-3.73814 0.0019,-5.608611 z m 4.064373,0 h 1.080593 l 1.097418,3.377318 1.182482,-3.377318 h 0.457102 l 1.187156,3.377318 1.092744,-3.377318 h 1.079658 l -1.889167,5.608611 h -0.42719 l -1.275959,-3.467992 -1.239503,3.467992 h -0.427189 z m 9.296273,0 c 0.675838,0 1.1722,0.116846 1.490021,0.352407 l -0.315952,0.82914 c -0.364559,-0.24304 -0.747815,-0.363625 -1.151635,-0.363625 -0.238366,0 -0.426254,0.05983 -0.555252,0.174802 a 0.58423031,0.58423031 0 0 0 -0.197236,0.458036 c 0,0.310343 0.370168,0.635643 1.112374,0.97029 0.390734,0.177606 0.673034,0.340256 0.843162,0.490753 0.172932,0.149563 0.304734,0.32343 0.394472,0.522536 a 1.5891064,1.5891064 0 0 1 0.134606,0.663686 c 0,0.439341 -0.186018,0.801096 -0.558056,1.084331 -0.373908,0.285104 -0.876813,0.426255 -1.503108,0.426255 -0.54497,0 -1.035724,-0.130868 -1.475065,-0.392603 l 0.381386,-0.863726 c 0.411298,0.265474 0.813248,0.400081 1.208655,0.400081 0.6076,0 0.913269,-0.197237 0.913269,-0.591709 0.0019,-0.186019 -0.06917,-0.360821 -0.212192,-0.529079 -0.14302,-0.166389 -0.440276,-0.355212 -0.888965,-0.5646 -0.447754,-0.208453 -0.747815,-0.380451 -0.903921,-0.514123 A 1.3170888,1.3170888 0 0 1 33.161446,23.170167 1.4675865,1.4675865 0 0 1 33.034317,22.55509 c 0,-0.419711 0.167324,-0.767445 0.494493,-1.045072 0.333712,-0.274822 0.756227,-0.412232 1.274089,-0.412232 z m -18.810346,9.347655 h 20.564906 v 0.934768 H 15.992553 Z m 0,2.336921 H 36.557459 V 33.71713 H 15.992553 Z m 0,2.336921 h 20.564906 v 0.934769 H 15.992553 Z"
   style="fill:#ffffff;" /></svg>
