<?xml version="1.0" encoding="UTF-8"?>
<svg version="1.1" width="32" height="32" viewBox="0 0 32 32" xmlns="http://www.w3.org/2000/svg">
 <path d="M23 0h-1v5a2 2 0 0 0 2 2h5V6zM5 0a2 2 0 0 0-2 2v28a2 2 0 0 0 2 2h22a2 2 0 0 0 2-2V8h-5c-1.645 0-3-1.355-3-3V0zm0 10.998.533.004 2.951 3.615V11H9.55v6h-.451l-3.031-3.717V17H5zm5.83.002h3.988v.943h-2.88v1.405h2.064v.906h-2.065v1.797h2.833V17h-3.942c0-2.001 0-3.999.002-6zm4.348 0h1.156l1.174 3.613L18.773 11h.489l1.27 3.613L21.701 11h1.155l-2.021 6h-.457l-1.365-3.71L17.687 17h-.457zm9.945 0c.723 0 1.254.125 1.594.377l-.338.887c-.39-.26-.8-.389-1.232-.389-.255 0-.456.064-.594.187a.625.625 0 0 0-.211.49c0 .332.396.68 1.19 1.038.418.19.72.364.902.525.185.16.326.346.422.559a1.7 1.7 0 0 1 .144.71c0 .47-.199.857-.597 1.16-.4.305-.938.456-1.608.456-.583 0-1.108-.14-1.578-.42l.408-.924c.44.284.87.428 1.293.428.65 0 .977-.211.977-.633.002-.199-.074-.386-.227-.566-.153-.178-.471-.38-.951-.604-.479-.223-.8-.407-.967-.55a1.409 1.409 0 0 1-.383-.514 1.57 1.57 0 0 1-.136-.658c0-.449.179-.821.529-1.118.357-.294.809-.441 1.363-.441zM5 21h22v1H5zm0 2.5h22v1H5zM5 26h22v1H5z" fill="#62686a" fill-rule="evenodd" />
</svg>
