<?xml version="1.0" encoding="utf-8"?>
<!-- Generator: Adobe Illustrator 16.2.1, SVG Export Plug-In . SVG Version: 6.00 Build 0)  -->
<!DOCTYPE svg PUBLIC "-//W3C//DTD SVG 1.1//EN" "http://www.w3.org/Graphics/SVG/1.1/DTD/svg11.dtd">
<?xml-stylesheet type="text/css" href="../../../../pixelegg/less/svg.css" ?>
<svg version="1.1" id="news_admin_navbar" xmlns="http://www.w3.org/2000/svg" xmlns:xlink="http://www.w3.org/1999/xlink" x="0px"
	 y="0px" width="28.347px" height="28.347px" viewBox="0 0 28.347 28.347" enable-background="new 0 0 28.347 28.347"
	 xml:space="preserve">
<g>
	<path fill-rule="evenodd" clip-rule="evenodd" fill="#696969" d="M17.688,2.809H5.044v22.758h18.544V8.709h-5.9V2.809z
		 M10.363,10.374h3.049v0.754H11.21v1.118h1.578v0.721H11.21v1.431h2.165v0.754h-3.013V10.374z M5.905,10.374h0.407l2.258,2.883
		v-2.883h0.813v4.843H9.038l-2.318-3.022v2.961H5.905V10.374z M22.746,23.881H5.887v-0.844h16.858V23.881z M22.746,21.352H5.887
		v-0.843h16.858V21.352z M22.746,18.83H5.887v-0.844h16.858V18.83z M21.708,13.491c-0.117-0.146-0.36-0.312-0.727-0.497
		c-0.366-0.184-0.612-0.335-0.739-0.453c-0.128-0.118-0.227-0.259-0.293-0.423c-0.069-0.162-0.104-0.344-0.104-0.541
		c0-0.369,0.136-0.676,0.404-0.92c0.273-0.242,0.619-0.364,1.043-0.364c0.553,0,0.958,0.103,1.218,0.31l-0.258,0.73
		c-0.298-0.213-0.613-0.32-0.943-0.32c-0.195,0-0.348,0.053-0.454,0.155c-0.108,0.104-0.161,0.237-0.161,0.403
		c0,0.273,0.302,0.559,0.909,0.854c0.32,0.156,0.551,0.3,0.69,0.433c0.142,0.131,0.25,0.284,0.323,0.459
		c0.074,0.175,0.111,0.37,0.111,0.586c0,0.387-0.153,0.705-0.458,0.955c-0.306,0.25-0.716,0.375-1.228,0.375
		c-0.446,0-0.848-0.115-1.207-0.346l0.312-0.76c0.336,0.234,0.665,0.352,0.989,0.352c0.497,0,0.746-0.174,0.746-0.521
		C21.883,13.794,21.825,13.639,21.708,13.491z M17.781,13.256l0.895-2.883h0.883l-1.545,4.843h-0.35l-1.044-3.013l-1.014,3.013
		h-0.349l-1.569-4.843h0.884l0.897,2.883l0.968-2.883h0.373L17.781,13.256z"/>
	<polygon fill-rule="evenodd" clip-rule="evenodd" fill="#696969" points="19.1,2.809 18.531,2.809 18.531,7.866 23.588,7.866 
		23.588,7.044 	"/>
</g>
</svg>
